<svg width="46" height="56" viewBox="0 0 46 56" fill="none" xmlns="http://www.w3.org/2000/svg">
<g clip-path="url(#clip0_1_2)">
<path fill-rule="evenodd" clip-rule="evenodd" d="M36.4746 2.00154C36.4746 1.35861 36.9958 0.837414 37.6386 0.837414C38.2816 0.837414 38.8028 1.35861 38.8028 2.00154V13.8425C38.8028 15.5321 38.0687 17.1382 36.7909 18.2439L34.8191 19.9503L37.3626 22.4938L41.2417 21.0518C42.6099 20.5434 43.5174 19.2378 43.5174 17.7784V7.046C43.5174 6.40309 44.0385 5.8819 44.6815 5.8819C45.3245 5.8819 45.8457 6.40309 45.8457 7.046V17.7784C45.8457 20.2109 44.3329 22.3867 42.053 23.2342L38.7947 24.4453C39.9408 26.6692 39.9408 29.3308 38.7947 31.5547L42.5586 32.9537C44.5347 33.6881 45.8457 35.574 45.8457 37.682V48.9539C45.8457 49.5969 45.3245 50.1181 44.6815 50.1181C44.0385 50.1181 43.5174 49.5969 43.5174 48.9539V37.682C43.5174 36.547 42.8114 35.5314 41.7475 35.136L37.3626 33.5063L34.8191 36.0497L37.0593 37.9882C38.1665 38.9464 38.8028 40.3385 38.8028 41.8027V53.9984C38.8028 54.6414 38.2816 55.1626 37.6386 55.1626C36.9958 55.1626 36.4746 54.6414 36.4746 53.9984V41.8027C36.4746 41.0143 36.132 40.2648 35.5357 39.7487L33.1686 37.7002L24.0643 46.8045C23.458 47.4108 22.4754 47.4108 21.8691 46.8045L12.7957 37.7311L10.4643 39.7487C9.86793 40.2648 9.52534 41.0143 9.52534 41.8027V53.9984C9.52534 54.6414 9.00417 55.1626 8.36136 55.1626C7.71838 55.1626 7.19718 54.6414 7.19718 53.9984V41.8027C7.19718 40.3385 7.83344 38.9464 8.94069 37.9882L11.1451 36.0806L8.58884 33.5243L4.25246 35.136C3.18843 35.5314 2.48253 36.547 2.48253 37.682V48.9539C2.48253 49.5969 1.96135 50.1181 1.31842 50.1181C0.675507 50.1181 0.154312 49.5969 0.154312 48.9539V37.682C0.154312 35.574 1.46527 33.6881 3.44132 32.9537L7.14951 31.5754C5.98907 29.3404 5.98907 26.6594 7.14952 24.4246L3.94702 23.2342C1.66695 22.3867 0.154312 20.2109 0.154312 17.7784V7.046C0.154312 6.40309 0.675507 5.8819 1.31842 5.8819C1.96135 5.8819 2.48253 6.40309 2.48253 7.046V17.7784C2.48253 19.2378 3.39011 20.5434 4.75816 21.0518L8.58884 22.4757L11.1451 19.9194L9.20883 18.2439C7.93133 17.1382 7.19718 15.5321 7.19718 13.8425V2.00154C7.19718 1.35861 7.71838 0.837414 8.36136 0.837414C9.00417 0.837414 9.52534 1.35861 9.52534 2.00154V13.8425C9.52534 14.8562 9.96589 15.82 10.7324 16.4834L12.7957 18.2689L21.8691 9.19539C22.4754 8.58924 23.458 8.58924 24.0643 9.19539L33.1686 18.2996L35.2676 16.4834C36.0341 15.82 36.4746 14.8562 36.4746 13.8425V2.00154ZM24.1408 18.5321C24.7049 17.9642 25.6551 18.5185 25.4386 19.289L24.3185 23.275C24.1099 24.0177 24.668 24.7541 25.4393 24.7541H29.6382C31.3635 24.7541 32.2306 26.8375 31.0146 28.0615L21.7591 37.3796C21.1951 37.9474 20.2448 37.3933 20.4613 36.6227L21.5812 32.6367C21.7898 31.8942 21.2318 31.1577 20.4606 31.1577H16.2617C14.5364 31.1577 13.6692 29.0744 14.8852 27.8502L24.1408 18.5321Z" fill="#F14705"/>
</g>
<defs>
<clipPath id="clip0_1_2">
<rect width="46" height="56" fill="white"/>
</clipPath>
</defs>
</svg>
